<?xml version="1.0" encoding="utf-8"?>
<!-- Generator: Adobe Illustrator 23.0.2, SVG Export Plug-In . SVG Version: 6.00 Build 0)  -->
<svg version="1.1" id="Layer_1" xmlns="http://www.w3.org/2000/svg" xmlns:xlink="http://www.w3.org/1999/xlink" x="0px" y="0px"
	 width="369px" height="80px" viewBox="0 0 369 80" style="enable-background:new 0 0 369 80;" xml:space="preserve">
<style type="text/css">
	.st0{fill:#2F4486;}
</style>
<g id="Logo" transform="translate(-121.683 -318.279)">
	<g id="Group_26832" transform="translate(331.821 381.601)">
		<path id="Path_8978" class="st0" d="M-0.7,0.1H9.6v3.1h-7v3.6h6.2v3.1H2.6v6.4h-3.3L-0.7,0.1z"/>
		<path id="Path_8979" class="st0" d="M15.8,8.3V8c0-4.8,3-8.2,7.3-8.2c4.3,0,7.3,3.4,7.3,8.1v0.3c0,4.8-3,8.2-7.3,8.2
			C18.8,16.4,15.8,13.1,15.8,8.3z M26.9,8.2V8c0-3.2-1.6-5.2-3.8-5.2c-2.2,0-3.8,2-3.8,5.1v0.2c0,3.2,1.6,5.2,3.9,5.2
			S26.9,11.4,26.9,8.2L26.9,8.2z"/>
		<path id="Path_8980" class="st0" d="M37.4,0.1h3.1l6.2,9.4V0.1h3.3v16.1H47l-6.4-9.7v9.7h-3.3L37.4,0.1z"/>
		<path id="Path_8981" class="st0" d="M57.6,0.1h5.2c4.7,0,7.7,3.2,7.7,7.9v0.2c0,4.7-3,7.9-7.7,7.9h-5.2V0.1z M60.9,3.1v10.1h1.8
			c2.5,0,4.2-1.8,4.2-5V8c0-3.2-1.7-5-4.2-5L60.9,3.1z"/>
		<path id="Path_8982" class="st0" d="M81.2,0h3.2l5.8,16.2h-3.4l-1.2-3.5h-5.5l-1.2,3.5h-3.4L81.2,0z M84.4,9.7l-1.7-5.2l-1.8,5.2
			H84.4z"/>
		<path id="Path_8983" class="st0" d="M98,3.1h-4V0.1h11.4v3.1h-4v13H98L98,3.1z"/>
		<path id="Path_8984" class="st0" d="M112.1,0.1h3.3v16.1h-3.3V0.1z"/>
		<path id="Path_8985" class="st0" d="M122.7,8.3V8c0-4.8,3-8.2,7.3-8.2c4.3,0,7.3,3.4,7.3,8.1v0.3c0,4.8-3,8.2-7.3,8.2
			C125.6,16.4,122.7,13.1,122.7,8.3z M133.7,8.2V8c0-3.2-1.6-5.2-3.8-5.2c-2.2,0-3.8,2-3.8,5.1v0.2c0,3.2,1.6,5.2,3.9,5.2
			S133.7,11.4,133.7,8.2L133.7,8.2z"/>
		<path id="Path_8986" class="st0" d="M144.3,0.1h3.1l6.2,9.4V0.1h3.3v16.1h-2.8l-6.4-9.7v9.7h-3.3L144.3,0.1z"/>
	</g>
	<g id="Group_26834" transform="translate(121.683 318.279)">
		<g id="Group_26833" transform="translate(55.147)">
			<path id="Path_8987" class="st0" d="M34.3,18.2c-3.7-2.7-8.2-4.2-12.7-4.1c-12.4,0-21.7,9.5-21.7,22c0,12.5,9.3,21.9,21.7,21.9
				c4.6,0.1,9.1-1.4,12.6-4.3l-0.1,3.1h10V15.3h-9.8V18.2z M22.1,49.1c-7,0-12.4-5.7-12.4-13c0-7.3,5.5-13,12.4-13
				c7.5,0,12.6,5.2,12.6,13C34.7,43.9,29.7,49.1,22.1,49.1z"/>
			<path id="Path_8988" class="st0" d="M82.3,40.2c0,2.4-0.8,4.8-2.4,6.6c-3.9,3.3-9.5,3.3-13.4,0c-1.6-1.9-2.4-4.2-2.4-6.6V15.3
				h-9.9v24.7c0,12.1,6.4,18.2,19,18.2s19-6.1,19-18.2V15.3h-9.9L82.3,40.2z"/>
			<path id="Path_8989" class="st0" d="M125,14.1c-4.6-0.1-9.1,1.4-12.7,4.1v-2.9h-9.9v64.2h9.9V53.7c3.6,3,8.1,4.5,12.7,4.4
				c12.4,0,21.7-9.4,21.7-21.9C146.7,23.6,137.4,14.1,125,14.1z M125.1,49.1c-6.4,0-13.4-4.1-13.4-13c0-9,6.9-13,13.4-13
				c6.8,0,11.9,5.6,11.9,13C137,43.6,132,49.1,125.1,49.1L125.1,49.1z"/>
			<path id="Path_8990" class="st0" d="M176.1,14c-6.5,0-10,2.6-11.7,4.5V1.2l-9.9,1.7v54.1h9.9V33.6c0-7.3,5.3-10.6,10.5-10.6
				c5.2,0,8.2,3.4,8.2,9.3v24.6h9.9V31.5C193,20.9,186.4,14,176.1,14z"/>
			<path id="Path_8991" class="st0" d="M208.6,0c-3.1,0-5.5,2.5-5.5,5.6c0,3.1,2.5,5.5,5.6,5.5c3,0,5.5-2.5,5.5-5.5
				c0.1-3-2.4-5.5-5.4-5.6C208.7,0,208.7,0,208.6,0z"/>
			<rect id="Rectangle_81" x="204" y="15.2" class="st0" width="9.9" height="41.7"/>
			<path id="Path_8992" class="st0" d="M247.2,14c-6.5,0-10,2.6-11.7,4.5v-3.3h-9.9v41.6h9.9V33.6c0-7.3,5.3-10.6,10.5-10.6
				c5.2,0,8.2,3.4,8.2,9.3v24.6h9.9V31.5C264.1,20.9,257.4,14,247.2,14z"/>
			<path id="Path_8993" class="st0" d="M312.6,34.2c0-9.7-6.7-20.1-19.1-20.1c-12.8,0-22.4,9.4-22.4,21.9c0,13,9.4,22,22.9,22
				c11.9,0,16.4-4.1,16.6-4.3l0.2-0.2v-8.6h-0.8c-0.2,0-0.4,0.1-0.5,0.2c-4.7,2.7-10,4.1-15.4,4c-7.2,0-12.1-3.8-13.4-10.3h31.9
				L312.6,34.2z M292.4,22.5c7.8,0,9.7,5.6,10.2,8.3h-21.5C281.8,28.5,284.2,22.5,292.4,22.5L292.4,22.5z"/>
		</g>
		<path id="Path_8994" class="st0" d="M19.8,2.8H0V57h19.8c17.6,0,29.4-10.9,29.4-27.1C49.2,13.5,37.7,2.8,19.8,2.8z M19.2,47.5H10
			v-9.5h10.4c4.1,0,8.9-1.4,9.1-8.2c0-5.3-3.3-8.2-9.2-8.2H10v-9.5h9.2c12.8,0,19.8,6.3,19.8,17.6C38.5,44.5,28,47.5,19.2,47.5
			L19.2,47.5z"/>
	</g>
</g>
</svg>
