<svg xmlns="http://www.w3.org/2000/svg" width="46.82" height="49.329" viewBox="0 0 46.82 49.329">
  <g id="Polygone_1" data-name="Polygone 1" transform="translate(4.82 43.165) rotate(-90)" fill="#fff" stroke-linecap="round" stroke-linejoin="round">
    <path d="M 30.17189979553223 37.49999618530273 L 6.828110218048096 37.49999618530273 C 5.289050102233887 37.49999618530273 3.785069942474365 37.08833694458008 2.478749990463257 36.30951690673828 C 1.252500057220459 35.57842636108398 0.2203599959611893 34.53653717041016 -0.506089985370636 33.29646682739258 C -1.232529997825623 32.0564079284668 -1.636639952659607 30.64659690856934 -1.674710035324097 29.21946716308594 C -1.715260028839111 27.69914817810059 -1.338889956474304 26.18594741821289 -0.5862799882888794 24.84345817565918 L 11.08561992645264 4.023307800292969 C 11.85385036468506 2.652957677841187 12.97472953796387 1.527097582817078 14.3270902633667 0.7674576044082642 C 15.59375 0.05594757944345474 17.03672027587891 -0.3201324343681335 18.5 -0.3201324343681335 C 19.96327972412109 -0.3201324343681335 21.40625 0.05594757944345474 22.67291069030762 0.7674576044082642 C 24.02527046203613 1.527097582817078 25.14615058898926 2.652957677841187 25.91437911987305 4.023307800292969 L 37.58628082275391 24.84344673156738 C 38.33889007568359 26.18594741821289 38.71525955200195 27.69914817810059 38.67470932006836 29.21946716308594 C 38.63663864135742 30.64659690856934 38.23252868652344 32.0564079284668 37.50608825683594 33.29646682739258 C 36.77964019775391 34.53653717041016 35.74750137329102 35.57842636108398 34.52125930786133 36.30951690673828 C 33.21493911743164 37.08833694458008 31.71096038818359 37.49999618530273 30.17189979553223 37.49999618530273 Z" stroke="none"/>
    <path d="M 18.4999942779541 4.179859161376953 C 17.13739013671875 4.179859161376953 15.7747859954834 4.861186981201172 15.01087951660156 6.223840713500977 L 3.338985443115234 27.04397392272949 C 1.844211578369141 29.7103214263916 3.771347045898438 33 6.828105926513672 33 L 30.17189407348633 33 C 33.22865295410156 33 35.15578842163086 29.7103214263916 33.66101455688477 27.04397392272949 L 21.98912048339844 6.223840713500977 C 21.22520637512207 4.861186981201172 19.86260032653809 4.179859161376953 18.4999942779541 4.179859161376953 M 18.5 -4.820144653320312 C 23.19742584228516 -4.820144653320312 27.54251861572266 -2.274730682373047 29.83962631225586 1.822746276855469 L 41.51153182983398 22.64292144775391 C 43.75893402099609 26.65178680419922 43.71194458007812 31.60556030273438 41.38889312744141 35.57106781005859 C 39.06584167480469 39.53657531738281 34.76774597167969 42 30.17189407348633 42 L 6.828105926513672 42 C 2.232254028320312 42 -2.065841674804688 39.53657531738281 -4.388893127441406 35.57106781005859 C -6.711948394775391 31.60556030273438 -6.758934020996094 26.65178680419922 -4.511531829833984 22.64292144775391 L 7.160360336303711 1.822788238525391 C 9.457426071166992 -2.27471923828125 13.80253410339355 -4.820144653320312 18.5 -4.820144653320312 Z" stroke="none" fill="#1e478e"/>
  </g>
</svg>
